<svg xmlns="http://www.w3.org/2000/svg" xmlns:xlink="http://www.w3.org/1999/xlink" xml:space="preserve" version="1.1" style="shape-rendering:geometricPrecision; text-rendering:geometricPrecision; image-rendering:optimizeQuality; fill-rule:evenodd; clip-rule:evenodd" viewBox="123.6 23 1217.45 1419">
 <defs>
  <style type="text/css">
   <![CDATA[
    .fil1 {fill:#7D3DAF}
    .fil0 {fill:#7D3DAF;fill-rule:nonzero}
   ]]>
  </style>
 </defs>
 <g id="Слой_x0020_1">
  <metadata id="CorelCorpID_0Corel-Layer"/>
  <g id="_984156528">
   <path class="fil0" d="M497 1068l2 104 3 -5c13,-16 43,-48 70,-73 21,-21 43,-37 59,-45 16,-6 43,-6 84,-8 110,0 349,-6 438,-119 32,-37 51,-97 65,-161 16,-84 16,-178 10,-259 -8,-86 -21,-153 -48,-204 -24,-46 -62,-81 -118,-108 -84,-35 -210,-56 -339,-56 -116,0 -232,19 -315,62 -27,13 -51,29 -73,45 -19,19 -38,41 -51,65 -35,62 -57,204 -48,342 5,110 29,218 78,274 8,8 18,19 29,30 11,5 22,13 32,21 14,6 27,11 41,19 19,8 37,16 56,27l25 16 0 33 0 0zm-108 236l0 -204 -22 -8c-16,-8 -29,-16 -45,-24 -17,-9 -33,-19 -49,-33 -16,-13 -29,-27 -40,-40 -70,-78 -102,-207 -108,-339 -8,-159 19,-326 65,-407 19,-32 43,-61 72,-88 27,-25 60,-46 97,-65 97,-48 232,-73 364,-73 142,0 285,25 382,68 83,37 137,86 172,156 35,64 51,145 59,245 8,91 8,193 -11,288 -16,83 -43,158 -86,212 -121,154 -395,156 -524,159 -27,0 -41,0 -44,0l0 0c0,0 -10,11 -24,21 -24,25 -51,54 -62,65 -21,27 -48,51 -70,75 -10,11 -21,22 -32,30l-94 100 0 -138 0 0z"/>
   <path class="fil1" d="M472 274c-51,10 -91,45 -102,91 -16,54 16,108 35,151 46,97 97,161 156,226 70,78 245,204 345,229 56,16 110,-33 129,-57 62,-81 19,-105 -62,-164 -57,-40 -102,-75 -154,0 -40,57 -123,-13 -158,-40 -35,-27 -119,-130 -86,-181 29,-48 113,-29 5,-177 -24,-38 -62,-89 -108,-78l0 0z"/>
   <path class="fil1" d="M712 293c13,8 51,10 72,16 22,5 49,13 68,21 124,51 159,151 169,275 3,32 38,32 38,-8 -3,-173 -127,-315 -291,-331 -29,-3 -67,-11 -56,27l0 0z"/>
   <path class="fil1" d="M943 591c46,19 43,-81 -19,-161 -53,-70 -204,-113 -188,-57 5,22 70,8 132,51 75,54 54,146 75,167z"/>
   <path class="fil1" d="M760 465c24,11 65,5 84,48 5,14 10,43 16,49 13,18 32,0 29,-25 -2,-88 -137,-142 -129,-72l0 0z"/>
  </g>
 </g>
</svg>